PathFileType	4	(X/Y/Z)	2_2_102_p1_0-528.trc
DataRate	CameraRate	NumFrames	NumMarkers	Units	OrigDataRate	OrigDataStartFrame	OrigNumFrames
59.0	59.0	7	27	m	59.0	264	529
Frame#	Time	RHip			RKnee			RAnkle			RBigToe			RSmallToe			RHeel			LHip			LKnee			LAnkle			LBigToe			LSmallToe			LHeel			Neck			Head			Nose			RShoulder			RElbow			RWrist			RThumb			RIndex			RPinky			LShoulder			LElbow			LWrist			LThumb			LIndex			LPinky			
		X1	Y1	Z1	X2	Y2	Z2	X3	Y3	Z3	X4	Y4	Z4	X5	Y5	Z5	X6	Y6	Z6	X7	Y7	Z7	X8	Y8	Z8	X9	Y9	Z9	X10	Y10	Z10	X11	Y11	Z11	X12	Y12	Z12	X13	Y13	Z13	X14	Y14	Z14	X15	Y15	Z15	X16	Y16	Z16	X17	Y17	Z17	X18	Y18	Z18	X19	Y19	Z19	X20	Y20	Z20	X21	Y21	Z21	X22	Y22	Z22	X23	Y23	Z23	X24	Y24	Z24	X25	Y25	Z25	X26	Y26	Z26	X27	Y27	Z27	
264	4.47457627118644	0.28922143537822026	0.5132297239758669	0.9643540250998074	0.3071837793156239	0.6719222675680911	1.4281944850902009	0.29124783236979956	0.8752866753750013	1.8274967848093522	0.30064624848095556	0.6724914482042808	1.8826637907508237	0.362819374322751	0.7487530700747022	1.8891853396481806	0.2739749701900146	0.9221754922634072	1.8741856163292268	0.08241880417446547	0.5089176409268021	0.9645553519485415	0.0905654883610547	0.6528814647251534	1.4199909070388175	0.08060539128819727	0.8378472417899138	1.8229625697547824	0.10704986103384384	0.7099171544248214	1.8959291052082479	0.04318856375354038	0.7046713303762553	1.8769842704012494	0.08805820322630985	0.938301980640699	1.884158498762679	0.17170791889731826	0.290509519385371	0.2954244879657071	0.1832694902664086	0.10252082703211061	0.09345512514208713	0.1741955651902481	0.1023635911350932	0.24253381584740774	0.31787084127515314	0.32763954402670004	0.35160194611774837	0.3808036661333764	0.15849005188093607	0.5783091192351117	0.40535915799354416	0.20244150467158145	0.3764064177918021	0.3542139434183384	0.29585653674546536	0.2780970930801353	0.3726855815210782	0.3085426457580259	0.2698801115626794	0.38830076954409437	0.23876485759232507	0.2929895836406975	0.02234834520896304	0.33599497623825986	0.3652112748987383	-0.046302371679442456	0.2843177334257601	0.6345220598332346	0.18189108849994312	0.19418367901511357	0.5437063384756798	0.26799211949751106	0.20472664414182537	0.5067248063380065	0.2807539770333036	0.20771886493092642	0.49854904259885946	0.2634068808180325	0.19978658994443696	0.5545049331770211
265	4.491525423728813	0.2929393778460639	0.5276737674185391	0.964191140889256	0.30726054043369966	0.6724495196982283	1.4282318820698825	0.29127309194650514	0.8753517353332589	1.8275384648793045	0.3017765561858644	0.6709001541092419	1.8779296336034772	0.3628986593579772	0.7488926750472245	1.8893365601229812	0.27510208733426783	0.9259983112608402	1.8797283243090763	0.08862207395170862	0.49832925991657434	0.9676266045919867	0.09067293218155406	0.6527892289670819	1.4200402225839646	0.08056403883084061	0.8378412948980595	1.823024745285152	0.10528346099015254	0.6946685788350206	1.8914126047924331	0.043209935198005464	0.7044537876849845	1.8769148893956213	0.08801845790592425	0.9384620738577966	1.8843499226147906	0.1776558033588076	0.3059502690320079	0.29542242947221203	0.1834571860465702	0.1024498055636519	0.09342453904456643	0.17803712470652688	0.10577225972159365	0.2446565108527027	0.3156450091299243	0.35407078263552577	0.35041588605499735	0.38537103079330215	0.14738177673004718	0.5672348373214666	0.4098140543604462	0.20336699746933876	0.3716128563663031	0.3455500119577592	0.2893678296031833	0.27955440582376245	0.3611660460615673	0.30000650669593787	0.27170045243908186	0.39005728001096657	0.23877268559170045	0.29211591695815947	0.01903122876293946	0.33332677890000917	0.3658538540308941	-0.04012069310281713	0.2728159054993844	0.6350342484483694	0.18812085135156198	0.2053458354483278	0.5389754791804786	0.2717327636957563	0.1952519659081153	0.4851252181450816	0.29170351354965146	0.19019539641043148	0.47713032257652305	0.274077809287349	0.18969913457438772	0.5448366473225884
266	4.508474576271187	0.28917753153825393	0.5135705911246381	0.9642606594231605	0.30719468702267544	0.6719427568926171	1.4283080506095156	0.2911931942658786	0.8752127827455547	1.8276169720485131	0.300779533773896	0.672512405824502	1.8830847294802189	0.36039942589801627	0.7341699267964862	1.8892528396191566	0.2749608121812294	0.9254861167220492	1.8796791584695278	0.08853564975964347	0.4982357777153574	0.9676814862361026	0.09064195400248996	0.6526058931849308	1.4199833923335015	0.08056240910822876	0.8378746695570264	1.8229243406607163	0.10708694461681446	0.7099660665238131	1.8958831739514843	0.04322944051590525	0.7046655377104273	1.8769992964933795	0.0874629171132355	0.9391098651697756	1.8807247119146255	0.17944699126767655	0.3177910732465072	0.29278574213329334	0.1835208488227548	0.10186197698677278	0.09087177754083339	0.18162124702890478	0.12617356294863638	0.23971280159436778	0.31579445708988935	0.35225022528114824	0.3472519956399261	0.3918075453893091	0.15044733598351215	0.5605020989166571	0.41267298643733114	0.21428983617350628	0.36637146723591896	0.34613619335517115	0.2887013938746537	0.279857453726439	0.36184093097796216	0.291802209857269	0.27350830497245665	0.38298152660270185	0.24300069674885558	0.29122467776302213	0.024314618411378455	0.34704048534150805	0.36312466154615314	-0.0358642221840585	0.27401964727216827	0.6312088310143775	0.19266011165404437	0.19217102103472872	0.5298220778131815	0.27766292651037844	0.1926748804137512	0.47671555063116555	0.29046148165450164	0.20451938088233368	0.4672722843366808	0.28256717239617124	0.16312959618663134	0.5322687899881203
267	4.52542372881356	0.2912938406448055	0.5239695868589234	0.9607121465369735	0.3071927428876833	0.671767922628623	1.4283547519196695	0.29117414449598145	0.8751671563335005	1.827692257132878	0.30185823050509336	0.6707036480885518	1.8781143124942135	0.3597788892614764	0.7346361325320846	1.8853333030096626	0.2711938630585573	0.9231384835886095	1.879441710184991	0.08732371857738801	0.4970940421521882	0.9635838766557866	0.09070755135966865	0.6525007571266275	1.4200640910429205	0.08053179915446936	0.8380076743807918	1.8231593055431572	0.10601536025239974	0.711265062091585	1.9005854330270402	0.04873293766252765	0.6911108314257508	1.8761613547348548	0.08069170862969645	0.9573960925714031	1.890377480732353	0.17959712807575817	0.3180097578561813	0.2927320353323119	0.1875608698859894	0.10297332740068221	0.09054090822392816	0.18175901306731282	0.12642698391839347	0.23974993439010553	0.31811791207156614	0.36599426387954037	0.34814396999120795	0.41582873936359227	0.15879337169148644	0.5448289783059105	0.4205503985327696	0.24387556984590225	0.35631177967904154	0.34563919160514806	0.2893093376917124	0.27623120622304315	0.3650843584342127	0.3022995687985447	0.26764521416095044	0.38726020302701786	0.2900052261053288	0.288490772465756	0.030375459987560534	0.33531773621385885	0.3651174873920696	-0.029636216251678362	0.2626882752830357	0.6321174974012734	0.19988794860919554	0.21195622831186225	0.5130200831197193	0.285257648656826	0.21229032850766585	0.4626871253715575	0.3026650947982575	0.21684980212862448	0.4546251491220127	0.2914066750417553	0.1933012168929216	0.5062782097816058
268	4.5423728813559325	0.2918194732456353	0.5264505473786886	0.9644052565503437	0.3072322177824832	0.6720864503437753	1.428444548647708	0.29116969218955796	0.8750855114169037	1.8276840691650476	0.3007367400500725	0.6722657618350498	1.8827559424101359	0.36283707618254474	0.7488977534728589	1.8893943394952977	0.27492288689972993	0.9253713598992236	1.8797684841382716	0.08740253355037132	0.49698832006776533	0.9635748055189356	0.09071509619433663	0.6524281160737956	1.4200211397978895	0.08051137550140287	0.8379244309242243	1.8230356244530086	0.1071314960566472	0.7098302023727636	1.8959388911394297	0.04982505436562998	0.6896327960270922	1.8719076804582218	0.08063442291418382	0.957140432337182	1.8900319428605306	0.18390461346874543	0.3199300192701606	0.29540339059011994	0.1890987146349437	0.11330917685909138	0.0873702371404476	0.18180659647507852	0.12592727744424548	0.23988953763761955	0.32298195964007087	0.35154540852385013	0.3435055501219343	0.4216898014351277	0.14961216190994744	0.535020207429309	0.41890540266740434	0.22507457905429196	0.35277942750057956	0.3436524066633833	0.2794533339896204	0.2818894579221416	0.36528809743939394	0.29445769457070103	0.265274013741275	0.3973363930422503	0.2852860657164239	0.2843851634890544	0.04181771069547724	0.3354828448733768	0.3609140743264863	-0.019691973077043606	0.2514461148109446	0.6290420457946886	0.2009597425482296	0.19476632143087177	0.5004313650908573	0.28552326391566335	0.20893051274873115	0.45295759665098556	0.3052630565587152	0.21213038870760176	0.4435612175517479	0.29527908170315353	0.17863058970576207	0.49586677395511397
269	4.559322033898305	0.2917394359897861	0.5265048708108274	0.9643595155347506	0.3071635494460305	0.6720996867230508	1.428512311300776	0.2911833641633874	0.8748992072415249	1.827766680774997	0.3016801243676725	0.6752310836677862	1.887841069122705	0.362891854138473	0.7488479617863424	1.8894132090913132	0.2710573334859583	0.9221567402702734	1.8792388245014504	0.08741848222037249	0.49680192820174285	0.9635054139542752	0.09066032022539905	0.6524784521046558	1.4202444656900812	0.07930959124808178	0.8395186634984576	1.8275735388531071	0.10532750437205635	0.6943488884415695	1.8914304179980623	0.04860706009973489	0.6906738777709164	1.8758221972890357	0.0805650434324377	0.9565808849585218	1.8897334512484636	0.18401453492699107	0.31993438406735986	0.2954037578984467	0.19386964950871513	0.10366581079907519	0.08991979332308325	0.18186915521322478	0.12470402027004548	0.23685218801351668	0.32316913662118124	0.3514811496578858	0.347321064257892	0.4371272820386914	0.16723981022870246	0.5257785954602141	0.42408005726197695	0.24488252663423601	0.3487742588379763	0.3524665148296519	0.3119111284695246	0.2704130546512724	0.3716672648051367	0.31466202283509637	0.2543190276912626	0.3970197466275477	0.2855216778478272	0.2842347331976434	0.04790453784421213	0.3240048324546316	0.36261645958610855	0.001973433943261115	0.2177328820680075	0.623995209996011	0.20598649668588673	0.20295192640668824	0.481334989508902	0.28237192785386916	0.22424550958385317	0.4328579190106716	0.29827114244271064	0.22579069885356406	0.4101681500482741	0.30191505730743573	0.20299209617354805	0.46867433246220525
270	4.576271186440678	0.2921902617138501	0.5288997998526147	0.9681660166599956	0.30724225101320896	0.6715857760124787	1.4284887696811253	0.29121586864155635	0.8749888560345748	1.8278392127372622	0.30272609460674177	0.6738518731905515	1.8830640179691647	0.3631443457502404	0.7481750071710613	1.8931833945334537	0.27492633997546345	0.9252499721883265	1.8797472799131874	0.08731300130713798	0.4967924681584003	0.963501142819179	0.09115070243670609	0.6517683172690609	1.4242891570084837	0.07943131098772324	0.8390814839026387	1.8275344382217709	0.11051698536253537	0.6805517429095779	1.8908727399967555	0.0486575813308669	0.6904787300931854	1.8758876997807563	0.08055440343625223	0.9565170160535	1.8898090317328757	0.18491090741161154	0.3060982737748076	0.29492664025889526	0.1938919589452838	0.10379322375453964	0.0899434584875878	0.1903566431264529	0.11628780608900073	0.23849132472209697	0.3228735615138843	0.3508993120177686	0.3435639996326889	0.43717094245254345	0.16485320090650063	0.5194889399878204	0.4232416000091317	0.25278665422333996	0.3437220248959145	0.3491145606410288	0.2991410277712218	0.26608386770800274	0.3808970841946275	0.32913462749655875	0.24309084714028195	0.3867236682463301	0.28882382647579347	0.28377243482398085	0.051991867833995925	0.32541486825383636	0.36225617877541416	0.011493916615458899	0.20870550869232682	0.6243531283395165	0.2034816857968355	0.1920993441665864	0.4762579869820623	0.27628032366242583	0.23116402466020267	0.4084288653683384	0.2914577566598722	0.2333304073416862	0.3885389164964285	0.3062577006488199	0.20310348387841934	0.460104134944622
